<?xml version="1.0" standalone="no"?>
<!DOCTYPE svg PUBLIC "-//W3C//DTD SVG 20010904//EN"
 "http://www.w3.org/TR/2001/REC-SVG-20010904/DTD/svg10.dtd">
<svg version="1.0" xmlns="http://www.w3.org/2000/svg"
 width="141.000000pt" height="48.000000pt" viewBox="0 0 141.000000 48.000000"
 preserveAspectRatio="xMidYMid meet">

<g transform="translate(0.000000,48.000000) scale(0.100000,-0.100000)"
fill="#000000" stroke="none">
<path d="M0 240 l0 -240 705 0 705 0 0 240 0 240 -705 0 -705 0 0 -240z m1210
171 c0 -18 -9 -20 -112 -23 -169 -5 -341 5 -345 19 -5 13 44 17 305 21 144 2
152 1 152 -17z m-933 -56 c30 -13 33 -17 23 -30 -9 -11 -17 -12 -30 -5 -21 11
-70 13 -95 4 -19 -8 -45 -55 -45 -83 0 -12 12 -34 28 -50 60 -65 152 -29 152
60 0 35 6 48 39 80 33 33 45 39 82 39 54 0 101 -27 118 -69 23 -55 13 -61 -99
-61 -111 0 -123 -8 -75 -55 29 -30 95 -35 116 -9 20 25 65 44 104 44 l35 0 0
75 c0 68 2 75 20 75 19 0 20 -7 20 -105 0 -68 4 -105 11 -105 6 0 24 13 40 29
21 22 29 39 29 66 0 45 29 88 70 105 41 17 110 7 132 -19 20 -26 26 -26 54 0
34 32 104 37 147 10 35 -21 57 -57 57 -91 0 -19 -8 -20 -105 -20 -115 0 -123
-5 -84 -54 16 -21 29 -26 63 -26 23 0 47 5 54 12 9 9 15 9 25 -1 10 -10 7 -16
-12 -32 -33 -27 -90 -25 -136 7 l-38 25 -23 -22 c-45 -42 -162 -31 -181 17 -5
13 -10 11 -32 -9 -48 -45 -111 -45 -111 -1 0 20 -5 24 -32 24 -18 0 -48 -11
-70 -26 -24 -17 -57 -29 -86 -32 -41 -3 -52 0 -79 22 l-31 26 -38 -25 c-42
-28 -79 -31 -129 -11 -45 19 -68 57 -67 111 0 54 14 81 55 105 38 24 75 25
124 5z"/>
<path d="M382 314 c-37 -26 -25 -34 53 -34 78 0 87 6 57 33 -23 21 -81 22
-110 1z"/>
<path d="M807 302 c-44 -46 -30 -109 29 -137 30 -14 37 -14 69 -1 42 18 60 52
51 100 -13 69 -99 91 -149 38z"/>
<path d="M1032 314 c-38 -26 -25 -34 58 -34 44 0 80 4 80 9 0 18 -45 41 -80
41 -20 0 -46 -7 -58 -16z"/>
</g>
</svg>
