<?xml version="1.0" standalone="no"?>
<!DOCTYPE svg PUBLIC "-//W3C//DTD SVG 20010904//EN"
 "http://www.w3.org/TR/2001/REC-SVG-20010904/DTD/svg10.dtd">
<svg version="1.0" xmlns="http://www.w3.org/2000/svg"
 width="367.000000pt" height="256.000000pt" viewBox="0 0 367.000000 256.000000"
 preserveAspectRatio="xMidYMid meet">

<g transform="translate(0.000000,256.000000) scale(0.100000,-0.100000)"
fill="#000000" stroke="none">
<path d="M2121 2021 c-14 -14 -21 -34 -21 -60 l0 -40 298 -3 c265 -3 301 -5
330 -21 33 -18 35 -18 75 0 36 15 81 19 332 23 l290 5 3 33 c2 19 -4 44 -13
58 l-15 24 -274 0 c-269 0 -273 0 -321 -24 l-48 -25 -29 22 c-29 21 -40 22
-308 25 -271 3 -279 3 -299 -17z"/>
<path d="M1067 1826 c-160 -57 -261 -220 -243 -390 8 -81 39 -140 106 -207
135 -132 341 -138 490 -13 106 89 213 117 303 79 l36 -15 3 -72 3 -73 75 1
c88 0 146 22 209 80 66 59 74 81 53 144 l-18 52 -34 -58 c-39 -65 -101 -110
-163 -121 l-37 -6 -2 304 -3 304 -42 3 -43 3 0 -226 0 -226 -47 8 c-129 22
-232 -7 -332 -92 -79 -67 -140 -90 -221 -82 -72 6 -119 28 -169 78 -39 39 -71
110 -71 156 0 23 0 23 143 23 79 0 219 3 312 7 l167 6 -5 47 c-13 109 -88 209
-199 265 -64 32 -78 35 -152 35 -44 -1 -98 -7 -119 -14z m188 -87 c22 -6 58
-23 79 -37 41 -28 99 -108 90 -123 -8 -13 -484 -11 -484 2 0 18 21 53 54 87
67 72 162 98 261 71z"/>
</g>
</svg>
